<svg xmlns="http://www.w3.org/2000/svg" width="192" height="124" viewBox="0 0 192 124">
    <g fill="none" fill-rule="nonzero">
        <path fill="#9FD7F7" d="M187 43h-54l-7.88-28.23a6 6 0 0 1 5.78-7.61L177 7c2.69 0 5.28 1.41 6 4l8 27a4 4 0 0 1-4 5z"/>
        <rect width="59.04" height="61.84" x="123" y="7.16" fill="#C5E7FB" rx="4"/>
        <path fill="#54B8F2" d="M127 7h51a4 4 0 0 1 4 4v7h-59v-7a4 4 0 0 1 4-4z"/>
        <rect width="9" height="9" x="132" y="24" fill="#EBF7FE" rx="2"/>
        <rect width="9" height="9" x="148" y="24" fill="#EBF7FE" rx="2"/>
        <rect width="9" height="9" x="164" y="24" fill="#EBF7FE" rx="2"/>
        <rect width="9" height="9" x="132" y="52" fill="#EBF7FE" rx="2"/>
        <rect width="9" height="9" x="164" y="52" fill="#EBF7FE" rx="2"/>
        <rect width="9" height="9" x="148" y="38" fill="#EBF7FE" rx="2"/>
        <path fill="#54B8F2" d="M168.5 48a5.49 5.49 0 1 1 5.5-5.49 5.5 5.5 0 0 1-5.5 5.49zm0-9a3.5 3.5 0 1 0 0 7 3.5 3.5 0 0 0 0-7z"/>
        <path fill="#B1DFFA" d="M168 14.25a2 2 0 0 1-2-2V2.07a2 2 0 0 1 4 0v10.18a2 2 0 0 1-2 2zM137 14.25a2 2 0 0 1-2-2V2.07a2 2 0 0 1 4 0v10.18a2 2 0 0 1-2 2z"/>
        <path fill="#78C8F5" d="M100.71 97.29l-56.2 26.15a6 6 0 0 1-8-2.9L.62 43.67a6 6 0 0 1 2.9-8L59.71 9.52a6 6 0 0 1 8 2.9l35.92 76.87a6 6 0 0 1-2.92 8z"/>
        <path fill="#C5E7FB" d="M93.64 94l-47.13 21.9a4 4 0 0 1-5.32-1.9L9.92 47.05a4 4 0 0 1 1.94-5.31L59 19.81a4 4 0 0 1 5.32 1.93l31.27 66.93A4 4 0 0 1 93.64 94z"/>
        <path fill="#EBF7FE" d="M92.37 91.26l-47.13 21.93a4 4 0 0 1-5.31-1.93l-30.85-66A4 4 0 0 1 11 39.93L58.14 18a4 4 0 0 1 5.31 1.93l30.86 66a4 4 0 0 1-1.94 5.33z"/>
        <path fill="#EBF7FE" d="M92.37 91.26l-47.13 21.93a4 4 0 0 1-5.31-1.93l-30.85-66A4 4 0 0 1 11 39.93L58.14 18a4 4 0 0 1 5.31 1.93l30.86 66a4 4 0 0 1-1.94 5.33z"/>
        <path fill="#8CCFF6" d="M31.83 51.9a1 1 0 0 1-.43-1.9l10.91-5.07a1 1 0 0 1 1.33.48 1 1 0 0 1-.48 1.32L32.25 51.8a.92.92 0 0 1-.42.1zM51.27 93.5a1 1 0 0 1-.91-.58 1 1 0 0 1 .48-1.32l10.91-5.08a1 1 0 0 1 .85 1.81L51.69 93.4a.92.92 0 0 1-.42.1zM36.05 60.94a1 1 0 0 1-.42-1.9l22.66-10.55a1 1 0 0 1 1.33.49 1 1 0 0 1-.49 1.32L36.48 60.85a1.07 1.07 0 0 1-.43.09zM40.28 70a1 1 0 0 1-.42-1.9l22.65-10.54a1 1 0 1 1 .85 1.81L40.7 69.89a1.06 1.06 0 0 1-.42.11zM44.51 79a1 1 0 0 1-.43-1.91l22.66-10.54a1 1 0 1 1 .84 1.81L44.93 78.93a.92.92 0 0 1-.42.07z"/>
        <path fill="#C5E7FB" d="M48.89 28.91L26.23 39.45a2 2 0 0 1-2.65-1l-.85-1.81a2 2 0 0 1 1-2.65l22.63-10.51a2 2 0 0 1 2.65 1l.85 1.81a2 2 0 0 1-.97 2.62z"/>
        <path fill="#49A1EA" d="M37.43 20.92l-.16-.35a2.41 2.41 0 0 1-.19-1.06 6.37 6.37 0 0 0-.62-3 6.6 6.6 0 0 0-8.57-3.12 6.47 6.47 0 0 0-1.28 11c.292.214.53.495.69.82l.16.36a2.1 2.1 0 0 1-1 2.79l-2.63 1.22a4 4 0 0 0-1.93 5.3l.84 1.81a2 2 0 0 0 2.66 1L48.05 27.1a2 2 0 0 0 1-2.65l-.84-1.81a4 4 0 0 0-5.32-1.93l-2.62 1.22a2.11 2.11 0 0 1-2.84-1.01z"/>
        <path fill="#FFF" d="M31.65 21.52a2.52 2.52 0 0 1-3.33-1.21A2.49 2.49 0 0 1 29.53 17a2.52 2.52 0 0 1 3.33 1.21 2.49 2.49 0 0 1-1.21 3.31z"/>
        <path fill="#54B8F2" d="M105.4 27.69l-.64-.3a3.73 3.73 0 0 0-5 1.77l-1.18 2.48 7.42 3.49 1.18-2.48a3.72 3.72 0 0 0-1.78-4.96z"/>
        <path fill="#D9EFFC" d="M79.37 72.28l7.33 3.47-4.64 4.8-3.47-1.65z"/>
        <path fill="#54B8F2" d="M78.59 78.9l3.48 1.65-2.18 2.24a1 1 0 0 1-1.67-.79l.37-3.1z"/>
        <path fill="#8CCFF6" d="M101.26 34.88l2.2 5.6L86.7 75.75l-2.42-1.14-.06-.03-2.42-1.15-2.48-1.17 16.75-35.27z"/>
        <path fill="#FFF" d="M96.07 36.99l7.38 3.49 2.67-5.61-7.39-3.49z"/>
    </g>
</svg>
